<?xml version="1.0" encoding="utf-8"?>
<!-- Generator: Adobe Illustrator 21.0.2, SVG Export Plug-In . SVG Version: 6.00 Build 0)  -->
<svg version="1.1" id="Layer_1" xmlns="http://www.w3.org/2000/svg" xmlns:xlink="http://www.w3.org/1999/xlink" x="0px" y="0px"
	 viewBox="0 0 820 460" style="enable-background:new 0 0 820 460;" xml:space="preserve">
<style type="text/css">
	.st0{fill:none;}
	.st1{fill:#4D4E50;}
</style>
<g>
	<polygon class="st0" points="416.1,243.5 451.2,236.7 451.4,231.9 415.9,238.8 	"/>
	<polygon class="st0" points="416.4,251.5 451,244.9 451.1,240.1 416.2,246.8 	"/>
	<path class="st0" d="M416.6,255c0,0,0.1,0.2,0.2,0.2h33.7c0.1,0,0.2-0.1,0.2-0.1l0.2-6.8l-34.3,6.6L416.6,255z"/>
	<polygon class="st0" points="439.7,229.1 439.7,228 426.6,228 422.9,228 415.5,228 415.8,235.5 451.5,228.6 451.5,228 443.3,228 
		443.3,229.1 	"/>
	<path class="st1" d="M433.1,121.2c-28,0-50.9,22.8-50.9,50.9c0,18.4,9.8,34.5,24.5,43.5l1.5,37.6c0.2,4.3,3.5,7.9,7.7,8.6
		c1.6,4.7,8.7,8.3,17.2,8.3c8.5,0,15.5-3.5,17.2-8.2c4.6-0.2,8.4-4.1,8.6-8.7l1.3-38c14.3-9,23.8-24.9,23.8-43
		C484,144.1,461.2,121.2,433.1,121.2z M450.6,255c0,0-0.1,0.1-0.2,0.1h-33.7c-0.1,0-0.2-0.1-0.2-0.2l0-0.2l34.3-6.6L450.6,255z
		 M451,244.9l-34.5,6.7l-0.2-4.7l34.9-6.7L451,244.9z M451.2,236.7l-35.1,6.8l-0.2-4.7l35.5-6.8L451.2,236.7z M459.5,177.4
		l-15.3,27.5l-0.9,23.1h8.2l0,0.6l-35.7,6.9l-0.3-7.5h7.4l-0.9-23.1l-15.3-27.5c-0.4-0.7-0.2-1.6,0.3-2.1c0.1-0.1,0.2-0.2,0.4-0.3
		c0,0,0,0,0,0c0,0,0,0,0,0c0.3-0.2,0.6-0.3,0.9-0.3h49c0.2,0,0.3,0.1,0.5,0.1c0.3,0,0.6,0,0.9,0.2
		C459.7,175.5,460,176.6,459.5,177.4z"/>
	<path class="st1" d="M440.6,204.3c0-0.3,0.1-0.6,0.2-0.8l10-17.9h0l1.1-2l3-5.3h-43.6l3,5.3l0,0l1.1,2h0l10,17.9
		c0.1,0.2,0.2,0.5,0.2,0.8l0.9,23.7h13.1L440.6,204.3z"/>
</g>
</svg>
