<?xml version="1.0" encoding="utf-8"?>
<!-- Generator: Adobe Illustrator 21.0.2, SVG Export Plug-In . SVG Version: 6.00 Build 0)  -->
<svg version="1.1" id="Layer_1" xmlns="http://www.w3.org/2000/svg" xmlns:xlink="http://www.w3.org/1999/xlink" x="0px" y="0px"
	 viewBox="0 0 117 162" style="enable-background:new 0 0 117 162;" xml:space="preserve">
<style type="text/css">
	.st0{fill:none;}
	.st1{fill:#4D4E50;}
</style>
<g>
	<polygon class="st0" points="41.1,130.5 76.2,123.7 76.4,118.9 40.9,125.8 	"/>
	<polygon class="st0" points="41.4,138.5 76,131.9 76.1,127.1 41.2,133.8 	"/>
	<path class="st0" d="M41.6,142c0,0,0.1,0.2,0.2,0.2h33.7c0.1,0,0.2-0.1,0.2-0.1l0.2-6.8l-34.3,6.6L41.6,142z"/>
	<polygon class="st0" points="64.7,116.1 64.7,115 51.6,115 47.9,115 40.5,115 40.8,122.5 76.5,115.6 76.5,115 68.3,115 68.3,116.1 
			"/>
	<path class="st1" d="M58.1,8.2c-28,0-50.9,22.8-50.9,50.9c0,18.4,9.8,34.5,24.5,43.5l1.5,37.6c0.2,4.3,3.5,7.9,7.7,8.6
		c1.6,4.7,8.7,8.3,17.2,8.3c8.5,0,15.5-3.5,17.2-8.2c4.6-0.2,8.4-4.1,8.6-8.7l1.3-38c14.3-9,23.8-24.9,23.8-43
		C109,31.1,86.2,8.2,58.1,8.2z M75.6,142c0,0-0.1,0.1-0.2,0.1H41.8c-0.1,0-0.2-0.1-0.2-0.2l0-0.2l34.3-6.6L75.6,142z M76,131.9
		l-34.5,6.7l-0.2-4.7l34.9-6.7L76,131.9z M76.2,123.7l-35.1,6.8l-0.2-4.7l35.5-6.8L76.2,123.7z M84.5,64.4L69.2,91.9L68.3,115h8.2
		l0,0.6l-35.7,6.9l-0.3-7.5h7.4l-0.9-23.1L31.7,64.4c-0.4-0.7-0.2-1.6,0.3-2.1c0.1-0.1,0.2-0.2,0.4-0.3c0,0,0,0,0,0c0,0,0,0,0,0
		c0.3-0.2,0.6-0.3,0.9-0.3h49c0.2,0,0.3,0.1,0.5,0.1c0.3,0,0.6,0,0.9,0.2C84.7,62.5,85,63.6,84.5,64.4z"/>
	<path class="st1" d="M65.6,91.3c0-0.3,0.1-0.6,0.2-0.8l10-17.9h0l1.1-2l3-5.3H36.3l3,5.3l0,0l1.1,2h0l10,17.9
		c0.1,0.2,0.2,0.5,0.2,0.8l0.9,23.7h13.1L65.6,91.3z"/>
</g>
</svg>
