<?xml version="1.0" encoding="utf-8"?>
<!-- Generator: Adobe Illustrator 21.0.2, SVG Export Plug-In . SVG Version: 6.00 Build 0)  -->
<svg version="1.1" id="Layer_1" xmlns="http://www.w3.org/2000/svg" xmlns:xlink="http://www.w3.org/1999/xlink" x="0px" y="0px"
	 viewBox="0 0 820 460" style="enable-background:new 0 0 820 460;" xml:space="preserve">
<style type="text/css">
	.st0{fill:none;}
	.st1{fill:#4D4E50;}
</style>
<g>
	<polygon class="st0" points="400.6,255.7 419.7,252 419.8,249.4 400.5,253.1 	"/>
	<polygon class="st0" points="400.8,260 419.5,256.4 419.6,253.8 400.7,257.4 	"/>
	<path class="st0" d="M400.9,261.9c0,0,0.1,0.1,0.1,0.1h18.3c0,0,0.1-0.1,0.1-0.1l0.1-3.7l-18.6,3.6L400.9,261.9z"/>
	<polygon class="st0" points="413.4,247.9 413.4,247.3 406.3,247.3 404.3,247.3 400.3,247.3 400.5,251.3 419.8,247.6 419.8,247.3 
		415.4,247.3 415.4,247.9 	"/>
	<path class="st1" d="M409.8,189.4c-15.2,0-27.6,12.4-27.6,27.6c0,10,5.3,18.7,13.3,23.6l0.8,20.4c0.1,2.3,1.9,4.3,4.2,4.7
		c0.9,2.6,4.7,4.5,9.3,4.5c4.6,0,8.4-1.9,9.3-4.4c2.5-0.1,4.6-2.2,4.7-4.7l0.7-20.6c7.7-4.9,12.9-13.5,12.9-23.3
		C437.4,201.7,425.1,189.4,409.8,189.4z M419.3,261.9C419.3,261.9,419.3,262,419.3,261.9L401,262c0,0-0.1-0.1-0.1-0.1l0-0.1
		l18.6-3.6L419.3,261.9z M419.5,256.4l-18.7,3.6l-0.1-2.6l18.9-3.6L419.5,256.4z M419.7,252l-19,3.7l-0.1-2.6l19.2-3.7L419.7,252z
		 M424.2,219.8l-8.3,14.9l-0.5,12.5h4.4l0,0.3l-19.4,3.7l-0.2-4.1h4l-0.5-12.5l-8.3-14.9c-0.2-0.4-0.1-0.9,0.2-1.2
		c0.1-0.1,0.1-0.1,0.2-0.2c0,0,0,0,0,0c0,0,0,0,0,0c0.2-0.1,0.3-0.2,0.5-0.2H423c0.1,0,0.2,0,0.3,0.1c0.2,0,0.3,0,0.5,0.1
		C424.3,218.8,424.4,219.4,424.2,219.8z"/>
	<path class="st1" d="M413.9,234.4c0-0.2,0-0.3,0.1-0.4l5.4-9.7h0l0.6-1.1l1.6-2.9H398l1.6,2.9l0,0l0.6,1.1h0l5.4,9.7
		c0.1,0.1,0.1,0.3,0.1,0.4l0.5,12.9h7.1L413.9,234.4z"/>
</g>
</svg>
