<?xml version="1.0" encoding="utf-8"?>
<!-- Generator: Adobe Illustrator 21.0.2, SVG Export Plug-In . SVG Version: 6.00 Build 0)  -->
<svg version="1.1" id="Layer_1" xmlns="http://www.w3.org/2000/svg" xmlns:xlink="http://www.w3.org/1999/xlink" x="0px" y="0px"
	 viewBox="0 0 97 74" style="enable-background:new 0 0 97 74;" xml:space="preserve">
<style type="text/css">
	.st0{fill:none;}
	.st1{fill:#4D4E50;}
</style>
<g>
	<polygon class="st0" points="12.2,59 5.6,64.6 91.3,64.6 84.9,59 82.9,59 88.3,63.6 8.5,63.6 14.1,59 	"/>
	<path class="st1" d="M4.9,74.3h87c2.8,0,5.1-2.3,5.1-5.1c0-2.1-1.2-3.8-3-4.6L86.6,58c3-0.3,5.4-2.9,5.4-6V6c0-3.3-2.7-6-6-6H10.8
		c-3.3,0-6,2.7-6,6v46c0,3.2,2.5,5.8,5.6,6l-7.6,6.5c-0.9,0.4-1.6,1-2.2,1.8l-0.1,0.1h0c-0.5,0.8-0.8,1.7-0.8,2.7
		C-0.2,72,2.1,74.3,4.9,74.3z M6.9,70.9c-0.6,0-1-0.4-1-1c0-0.6,0.4-1,1-1c0.6,0,1,0.4,1,1C7.9,70.4,7.4,70.9,6.9,70.9z M10.9,70.9
		c-0.6,0-1-0.4-1-1c0-0.6,0.4-1,1-1c0.6,0,1,0.4,1,1C11.9,70.4,11.4,70.9,10.9,70.9z M15.1,70.9c-0.6,0-1-0.4-1-1c0-0.6,0.4-1,1-1
		c0.6,0,1,0.4,1,1C16.1,70.4,15.7,70.9,15.1,70.9z M52,70.9h-8.5c-0.6,0-1-0.4-1-1c0-0.6,0.4-1,1-1H52c0.6,0,1,0.4,1,1
		C53,70.4,52.6,70.9,52,70.9z M48.4,3.6c0.6,0,1.1,0.5,1.1,1.1c0,0.6-0.5,1.1-1.1,1.1c-0.6,0-1.1-0.5-1.1-1.1
		C47.3,4.1,47.8,3.6,48.4,3.6z M10.3,49V9h76.2v40H10.3z M12.2,59h1.9l-5.6,4.7h79.7L82.9,59h2l6.4,5.6H5.6L12.2,59z"/>
</g>
</svg>
