<?xml version="1.0" encoding="utf-8"?>
<!-- Generator: Adobe Illustrator 21.0.2, SVG Export Plug-In . SVG Version: 6.00 Build 0)  -->
<svg version="1.1" id="Layer_1" xmlns="http://www.w3.org/2000/svg" xmlns:xlink="http://www.w3.org/1999/xlink" x="0px" y="0px"
	 viewBox="0 0 72 68" style="enable-background:new 0 0 72 68;" xml:space="preserve">
<style type="text/css">
	.st0{fill:#4D4E50;}
</style>
<path class="st0" d="M66.3-0.9H5.8c-3.2,0-5.7,2.6-5.7,5.7v56.7c0,3.2,2.6,5.7,5.7,5.7h60.5c3.2,0,5.7-2.6,5.7-5.7V4.8
	C72,1.6,69.4-0.9,66.3-0.9z M54.9,3.1v28.7H17.2V3.1H54.9z M13.7,58.5H3.4V48.2h10.3V58.5z M13.7,38H3.4V27.7h10.3V38z M13.7,17.4
	H3.4V7.1h10.3V17.4z M17.2,63.2V34.4h37.7v28.7H17.2z M68.6,58.5H58.3V48.2h10.3V58.5z M68.6,38H58.3V27.7h10.3V38z M68.6,17.4H58.3
	V7.1h10.3V17.4z"/>
</svg>
